<svg width="171" height="210" viewBox="0 0 171 210" fill="none" xmlns="http://www.w3.org/2000/svg">
<g clip-path="url(#clip0_27_2)">
<path opacity="0.2" d="M22 127.09C26 102.09 61 80.09 88 93.09C115 106.09 125 146.09 149 164.09C173 182.09 170 198.09 170 198.09H0C0 198.09 4 175.09 13 151.09L22 127.09Z" fill="#39B7B7"/>
<path d="M21.12 197.59H159.12" stroke="black" stroke-miterlimit="10"/>
<path d="M54.75 123.4C52.22 93.57 64.36 91.04 74.47 94.08C84.58 97.11 86.1 125.43 86.1 125.43" stroke="black" stroke-miterlimit="10"/>
<path d="M114.38 127.44C114.38 127.44 122.97 103.17 110.84 99.63C98.71 96.09 90.62 110.75 90.11 125.41" stroke="black" stroke-miterlimit="10"/>
<path d="M38.32 119.6C37.66 131.59 35.66 158.59 35.66 158.59L32.26 197.97L108.1 209.09L137.42 196.45L127.31 123.14L118.66 122.59L103.55 122.13L38.33 119.6H38.32Z" fill="#39B7B7" stroke="black" stroke-linejoin="round"/>
<path d="M103.79 121.88L108.34 208.84" stroke="black" stroke-miterlimit="10"/>
<path d="M53.62 160.59C53.62 160.59 73.62 163.59 81.62 167.59" stroke="white" stroke-miterlimit="10" stroke-linecap="round"/>
<g opacity="0.6">
<path d="M41.12 87.59C43.053 87.59 44.62 86.023 44.62 84.09C44.62 82.157 43.053 80.59 41.12 80.59C39.187 80.59 37.62 82.157 37.62 84.09C37.62 86.023 39.187 87.59 41.12 87.59Z" stroke="#4C7C7D" stroke-miterlimit="10"/>
<path d="M155.12 160.59C157.053 160.59 158.62 159.023 158.62 157.09C158.62 155.157 157.053 153.59 155.12 153.59C153.187 153.59 151.62 155.157 151.62 157.09C151.62 159.023 153.187 160.59 155.12 160.59Z" stroke="#4C7C7D" stroke-miterlimit="10"/>
<path d="M142.12 122.09C143.225 122.09 144.12 121.195 144.12 120.09C144.12 118.985 143.225 118.09 142.12 118.09C141.015 118.09 140.12 118.985 140.12 120.09C140.12 121.195 141.015 122.09 142.12 122.09Z" fill="white"/>
<path d="M94.62 77.09C96.553 77.09 98.12 75.523 98.12 73.59C98.12 71.657 96.553 70.09 94.62 70.09C92.687 70.09 91.12 71.657 91.12 73.59C91.12 75.523 92.687 77.09 94.62 77.09Z" fill="white"/>
<path d="M5.62 151.09C7.00071 151.09 8.12 149.971 8.12 148.59C8.12 147.209 7.00071 146.09 5.62 146.09C4.23929 146.09 3.12 147.209 3.12 148.59C3.12 149.971 4.23929 151.09 5.62 151.09Z" fill="white"/>
</g>
<path d="M75.97 107.53C75.4 107.19 74.84 106.83 74.28 106.47" stroke="#263238" stroke-width="0.75" stroke-miterlimit="10"/>
<path d="M70.94 104.15C52.85 90.77 38.77 66.44 54.53 42.66C63.82 28.66 79.56 34.42 84.98 39.44C90.97 44.98 85.46 50.66 79.47 46.87C69.09 40.29 67.63 25.07 79.13 13.82C86.62 6.48995 96.37 6.02995 101.74 6.45995" stroke="#263238" stroke-width="0.75" stroke-miterlimit="10"/>
<path d="M103.76 6.67993C105 6.85993 105.73 7.02993 105.73 7.02993" stroke="#263238" stroke-width="0.75" stroke-miterlimit="10"/>
<path d="M113.9 7.79998C114.37 3.76998 106.2 1.55997 105.59 6.82997C104.97 12.1 113.43 11.83 113.9 7.79998Z" fill="#263238"/>
<path d="M103.17 1.18997C103.93 -0.330027 106.62 -0.530027 109.4 1.39997C112.18 3.32997 114.1 6.67997 114.1 6.67997C114.1 6.67997 110.27 7.13997 107.06 6.06997C103.85 4.98997 102.41 2.71997 103.18 1.18997H103.17Z" fill="#EBEBEB"/>
<path d="M114.1 6.67996C112.52 5.96996 110.97 5.19996 109.43 4.42996C107.89 3.63996 106.35 2.85996 104.84 2.01996C106.42 2.72996 107.97 3.49996 109.51 4.26996C111.05 5.05996 112.59 5.83996 114.1 6.67996Z" fill="#263238"/>
<path d="M106.84 1.20996C107.2 1.61996 107.51 2.06996 107.81 2.51996C108.1 2.97996 108.39 3.43996 108.63 3.92996C108.27 3.51996 107.96 3.06996 107.66 2.61996C107.37 2.15996 107.08 1.69996 106.84 1.20996Z" fill="#263238"/>
<path d="M110.22 4.72998C109.67 4.88998 109.1 4.96998 108.54 5.05998C107.97 5.12998 107.41 5.20998 106.84 5.20998C107.39 5.04998 107.96 4.96998 108.52 4.87998C109.09 4.80998 109.65 4.72998 110.22 4.72998Z" fill="#263238"/>
<path d="M111.07 4.06995C111.26 4.27995 111.38 4.51995 111.51 4.75995C111.62 5.00995 111.74 5.24995 111.79 5.52995C111.6 5.31995 111.48 5.07995 111.35 4.83995C111.24 4.58995 111.12 4.34995 111.07 4.06995Z" fill="#263238"/>
<path d="M101.88 11.65C102.27 13.3 104.84 14.12 107.99 12.88C111.14 11.64 113.78 8.82996 113.78 8.82996C113.78 8.82996 110.16 7.48996 106.78 7.79996C103.41 8.10996 101.48 9.98996 101.88 11.65Z" fill="#EBEBEB"/>
<path d="M113.78 8.82996C112.08 9.15996 110.4 9.54996 108.71 9.93996C107.03 10.35 105.35 10.75 103.69 11.22C105.39 10.9 107.07 10.5 108.76 10.11C110.44 9.69996 112.12 9.29996 113.78 8.82996Z" fill="#263238"/>
<path d="M105.46 12.4699C105.91 12.1499 106.31 11.7799 106.71 11.4199C107.1 11.0399 107.49 10.6599 107.83 10.2399C107.38 10.5599 106.98 10.9299 106.58 11.2899C106.19 11.6699 105.8 12.0499 105.46 12.4699Z" fill="#263238"/>
<path d="M109.55 9.82996C109.05 9.54996 108.52 9.33996 107.99 9.11996C107.46 8.91996 106.92 8.71996 106.37 8.57996C106.87 8.85996 107.4 9.06996 107.93 9.28996C108.46 9.48996 109 9.68996 109.55 9.82996Z" fill="#263238"/>
<path d="M110.23 10.6699C110.46 10.5099 110.64 10.3099 110.82 10.1099C110.99 9.89993 111.16 9.67993 111.27 9.42993C111.04 9.58993 110.86 9.78993 110.68 9.98993C110.51 10.1999 110.35 10.4199 110.23 10.6699Z" fill="#263238"/>
<path d="M113.9 7.79995C113.1 7.70995 112.52 6.97995 112.62 6.17995C112.71 5.37995 113.44 4.79995 114.24 4.89995C115.04 4.99995 115.62 5.71995 115.52 6.51995C115.43 7.31995 114.7 7.89995 113.9 7.79995Z" fill="#455A64"/>
<path d="M113.56 10.71C112.76 10.62 112.18 9.88999 112.28 9.08999C112.38 8.28999 113.1 7.70999 113.9 7.80999C114.7 7.90999 115.28 8.62999 115.18 9.42999C115.09 10.23 114.36 10.81 113.56 10.71Z" fill="#455A64"/>
</g>
<defs>
<clipPath id="clip0_27_2">
<rect width="170.12" height="209.59" fill="white"/>
</clipPath>
</defs>
</svg>
