<svg width="116" height="70" viewBox="0 0 116 70" fill="none" xmlns="http://www.w3.org/2000/svg">
<g clip-path="url(#clip0_25_2)">
<path d="M47.5011 29.9614C46.7066 30.7444 46.0564 31.3833 45.3353 32.093C43.9564 30.7191 42.5547 29.3325 41.1631 27.9359C37.7929 24.549 32.8338 24.0464 29.0563 26.7185C24.6766 29.8175 23.8998 35.8309 27.3307 40.0866C30.587 44.1276 36.7986 44.5999 40.609 40.9731C43.964 37.7782 47.1899 34.4469 50.474 31.1788C55.2206 26.4533 59.9672 21.7254 64.7213 17.0101C65.2577 16.4771 65.8574 16.0099 66.2774 15.3583C66.2875 15.2775 66.3305 15.1815 66.3052 15.1133C65.3033 12.4261 65.7891 9.87266 67.1301 7.46322C69.2554 3.63944 72.3371 0.985012 76.7396 0.136405C77.6302 -0.0353367 78.6043 -0.0429136 79.5 0.106098C82.1111 0.545555 83.8721 2.60141 84.0897 5.25836C84.239 7.07175 83.8544 8.78412 83.0548 10.3904C81.3723 13.7697 78.7612 16.1842 75.2493 17.5884C73.0557 18.4673 70.8291 18.6163 68.5419 17.5581C68.2838 17.7879 67.9954 18.0203 67.7373 18.2779C59.5674 26.4306 51.3722 34.558 43.2403 42.7511C37.3096 48.7242 28.4187 46.9714 24.335 41.2863C19.295 34.2701 23.2471 24.006 31.7155 22.2431C35.9788 21.3566 39.7437 22.3997 42.9139 25.3951C44.47 26.865 45.9501 28.4132 47.5011 29.9614Z" fill="#383634"/>
<path d="M43.4428 53.0632C43.6983 53.8285 43.9716 54.4902 44.1385 55.1746C44.6977 57.473 44.174 59.5692 42.5648 61.2589C39.9233 64.0345 37.1756 66.7091 34.4531 69.409C33.6991 70.1566 32.9882 70.1768 32.3506 69.5732C31.6978 68.9519 31.7104 68.1538 32.4872 67.3683C34.9136 64.9109 37.3704 62.4838 39.8044 60.0314C40.1763 59.6551 40.4774 59.2081 40.7532 58.8671C40.3028 57.4831 40.189 57.3997 38.8379 57.4199C38.4963 57.7356 38.0864 58.0917 37.7018 58.4731C35.4626 60.7007 33.2336 62.9384 30.9843 65.1584C30.5744 65.5625 30.0861 65.8833 29.7091 66.1838C27.7938 65.661 27.4901 64.6482 28.7552 63.3728C31.1285 60.981 33.5195 58.607 35.9029 56.2253C36.1104 56.0182 36.3381 55.8187 36.5051 55.5813C36.9099 55.008 36.8441 54.3008 36.376 53.8613C35.9105 53.4244 35.1995 53.3865 34.6429 53.8032C34.3747 54.0053 34.1495 54.2604 33.9091 54.4978C31.6421 56.7582 29.3776 59.0212 27.1106 61.2791C26.8424 61.5468 26.5793 61.8322 26.263 62.0317C25.7038 62.3878 25.003 62.259 24.5349 61.7741C24.0339 61.2513 23.9555 60.6502 24.3705 60.0567C24.5855 59.7485 24.8689 59.4884 25.1371 59.2207C27.4598 56.8971 29.8356 54.6241 32.0975 52.2449C34.2026 50.03 37.5348 48.9591 40.7431 50.6412C40.8848 50.7169 41.0543 50.7422 41.2719 50.8129C41.578 50.525 41.8867 50.2472 42.1802 49.9542C50.2919 41.8646 58.4061 33.7751 66.5102 25.678C68.9847 23.2054 71.9323 21.9047 75.4593 21.9476C81.5115 22.0183 86.5895 26.3725 87.4978 32.487C88.3834 38.445 84.9803 43.8296 79.3507 45.7617C74.6649 47.3705 70.4547 46.4133 66.834 43.0492C65.2653 41.5893 63.7903 40.031 62.1786 38.4273C62.9325 37.7403 63.6309 37.1038 64.4101 36.3916C64.6758 36.6391 65.0149 36.9346 65.3362 37.2503C66.624 38.5232 67.8587 39.8542 69.1997 41.0691C74.3511 45.7288 82.7512 43.0668 84.3073 36.3032C85.2308 32.29 83.5027 28.3198 79.9428 26.2715C76.3398 24.1979 71.9551 24.6854 68.9619 27.5772C66.5076 29.9488 64.1242 32.3885 61.7079 34.798C55.9544 40.5412 50.2008 46.2819 44.4472 52.0277C44.093 52.3813 43.7489 52.7425 43.4352 53.0657L43.4428 53.0632Z" fill="#4C7C7D"/>
<path d="M113.369 26.077C113.369 25.2056 113.369 24.5919 113.369 23.9782C113.366 20.1494 113.361 16.3205 113.361 12.4942C113.361 12.1154 113.338 11.729 113.407 11.3627C113.52 10.7389 114.039 10.3424 114.664 10.3323C115.286 10.3222 115.818 10.7061 115.949 11.3274C116.018 11.6507 116.003 11.9967 116.003 12.3326C116.003 23.2281 116.003 34.1236 116.003 45.0216C116.003 45.3146 116.018 45.6152 115.967 45.9031C115.848 46.5976 115.307 47.032 114.646 47.0068C113.976 46.9815 113.439 46.537 113.394 45.8298C113.333 44.908 113.369 43.9811 113.359 43.0542C113.359 42.8597 113.336 42.6678 113.321 42.4278C112.683 43.0138 112.119 43.5669 111.517 44.0771C104.412 50.1032 93.5499 46.5218 91.4044 37.1089C90.1317 31.5323 92.4771 26.0088 97.1503 23.1018C101.824 20.1973 107.863 20.8111 111.863 24.6045C112.308 25.0289 112.744 25.4633 113.374 26.0795L113.369 26.077ZM103.552 23.9807C101.856 23.9656 100.298 24.3949 98.8456 25.2385C95.0174 27.4585 93.0262 31.8329 93.9978 36.3588C94.8403 40.2912 97.2364 42.9936 101.191 44.0139C105.001 44.9964 108.275 43.8447 110.866 40.9327C113.725 37.7176 114.173 32.9315 111.99 29.0471C110.155 25.784 107.299 24.1171 103.554 23.9832L103.552 23.9807Z" fill="#383634"/>
<path d="M21.5341 11.6431C21.0787 12.8529 20.9497 12.9589 19.596 12.9589C14.4548 12.9665 9.31097 12.9615 4.16969 12.9615C3.71427 12.9615 3.25884 12.9615 2.72498 12.9615V27.2539C3.22089 27.2767 3.67125 27.312 4.12162 27.312C8.37987 27.3171 12.6356 27.312 16.8938 27.3171C17.3138 27.3171 17.744 27.3044 18.1539 27.3777C18.9028 27.509 19.3152 27.9838 19.338 28.6455C19.3633 29.3401 18.9028 29.8881 18.1235 30.022C17.7541 30.0851 17.367 30.0599 16.9875 30.0599C12.7292 30.0599 8.47349 30.0599 4.21524 30.0599C3.75728 30.0599 3.29679 30.0599 2.64401 30.0599C2.64401 30.6029 2.64401 31.0474 2.64401 31.4919C2.64401 35.9521 2.64401 40.4124 2.64401 44.8726C2.64401 45.2085 2.66425 45.5495 2.61365 45.8803C2.50991 46.5572 1.95834 47.0118 1.30556 47.0068C0.64772 46.9992 0.136628 46.5446 0.0303619 45.845C-0.00759047 45.5975 0.00759046 45.3424 0.00759046 45.0898C0 34.1463 0 23.2079 0 12.2694C0 10.6606 0.33145 10.3222 1.90774 10.3197C7.80806 10.3121 13.7109 10.3146 19.6112 10.3197C20.9547 10.3197 21.104 10.4384 21.5341 11.6456V11.6431Z" fill="#383634"/>
</g>
<defs>
<clipPath id="clip0_25_2">
<rect width="116" height="70" fill="white"/>
</clipPath>
</defs>
</svg>
